# xmcd CD database file
#
# Track frame offsets:
#	182
#	18322
#	34785
#	48142
#	59880
#	74125
#	88515
#	109015
#	125467
#	140222
#	150052
#	164417
#	175247
#	190667
#
# Disc length: 2814 seconds
#
# Revision: 6
# Processed by: cddbd v1.5.2PL0 Copyright (c) Steve Scherf et al.
# Submitted via: CDex 1.92
#
DISCID=bf0afc0e
DTITLE=The Commitments - The Commitments
DYEAR=1991
DGENRE=Rock
TTITLE0=Mustang Sally
TTITLE1=Take Me to the River
TTITLE2=Chain of Fools
TTITLE3=The Dark End of the Street
TTITLE4=Destination Anywhere
TTITLE5=I Can't Stand the Rain
TTITLE6=Try a Little Tenderness
TTITLE7=Treat Her Right
TTITLE8=Do Right Woman Do Right Man
TTITLE9=Mr Pitiful
TTITLE10=I Never Loved a Man
TTITLE11=In the Midnight Hour
TTITLE12=Bye Bye Baby
TTITLE13=Slip Away
EXTD=YEAR: 1991
EXTT0=
EXTT1=
EXTT2=
EXTT3=
EXTT4=
EXTT5=
EXTT6=
EXTT7=
EXTT8=
EXTT9=
EXTT10=
EXTT11=
EXTT12=
EXTT13=
PLAYORDER=
